<svg width="384" height="384" viewBox="0 0 40 40" fill="none" xmlns="http://www.w3.org/2000/svg">
  <!-- Crab nebula inspired pulsar -->
  <defs>
    <radialGradient id="pulsarGradient" cx="50%" cy="50%" r="70%">
      <stop offset="0%" style="stop-color:#DDD6FE"/>
      <stop offset="20%" style="stop-color:#C084FC"/>
      <stop offset="50%" style="stop-color:#8B5CF6"/>
      <stop offset="80%" style="stop-color:#4C1D95"/>
      <stop offset="100%" style="stop-color:#1E1B4B"/>
    </radialGradient>
  </defs>
  
  <!-- Dark background -->
  <rect width="40" height="40" fill="#030712"/>
  
  <!-- Central pulsar with expanding filaments (centered in 40x40 viewBox) -->
  <ellipse cx="20" cy="20" rx="14.4" ry="9.6" fill="url(#pulsarGradient)" opacity="0.8" transform="rotate(15 20 20)"/>
  <ellipse cx="20" cy="20" rx="9.6" ry="14.4" fill="url(#pulsarGradient)" opacity="0.6" transform="rotate(-15 20 20)"/>
  
  <!-- Filament structures -->
  <path d="M20 4.8Q14.4 10.4 20 15.2Q25.6 10.4 20 4.8" fill="#A855F7" opacity="0.7"/>
  <path d="M20 35.2Q14.4 29.6 20 24.8Q25.6 29.6 20 35.2" fill="#C084FC" opacity="0.8"/>
  <path d="M4.8 20Q10.4 14.4 15.2 20Q10.4 25.6 4.8 20" fill="#8B5CF6" opacity="0.6"/>
  <path d="M35.2 20Q29.6 14.4 24.8 20Q29.6 25.6 35.2 20" fill="#DDD6FE" opacity="0.7"/>
  
  <!-- Shock waves -->
  <ellipse cx="20" cy="20" rx="15.2" ry="7.2" fill="none" stroke="#F3E8FF" stroke-width="1.2" opacity="0.4" transform="rotate(45 20 20)"/>
  <ellipse cx="20" cy="20" rx="12" ry="4.8" fill="none" stroke="#E0E7FF" stroke-width="1.2" opacity="0.6" transform="rotate(-45 20 20)"/>
</svg>