<svg width="96" height="96" viewBox="0 0 32 32" fill="none" xmlns="http://www.w3.org/2000/svg">
  <!-- Crab nebula inspired pulsar -->
  <defs>
    <radialGradient id="pulsarGradient" cx="50%" cy="50%" r="70%">
      <stop offset="0%" style="stop-color:#DDD6FE"/>
      <stop offset="20%" style="stop-color:#C084FC"/>
      <stop offset="50%" style="stop-color:#8B5CF6"/>
      <stop offset="80%" style="stop-color:#4C1D95"/>
      <stop offset="100%" style="stop-color:#1E1B4B"/>
    </radialGradient>
  </defs>
  
  <!-- Central pulsar with expanding filaments -->
  <ellipse cx="16" cy="16" rx="14.4" ry="9.6" fill="url(#pulsarGradient)" opacity="0.8" transform="rotate(15 16 16)"/>
  <ellipse cx="16" cy="16" rx="9.6" ry="14.4" fill="url(#pulsarGradient)" opacity="0.6" transform="rotate(-15 16 16)"/>
  
  <!-- Filament structures -->
  <path d="M16 0.8Q10.4 6.4 16 11.2Q21.6 6.4 16 0.8" fill="#A855F7" opacity="0.7"/>
  <path d="M16 31.2Q10.4 25.6 16 20.8Q21.6 25.6 16 31.2" fill="#C084FC" opacity="0.8"/>
  <path d="M0.8 16Q6.4 10.4 11.2 16Q6.4 21.6 0.8 16" fill="#8B5CF6" opacity="0.6"/>
  <path d="M31.2 16Q25.6 10.4 20.8 16Q25.6 21.6 31.2 16" fill="#DDD6FE" opacity="0.7"/>
  
  <!-- Shock waves -->
  <ellipse cx="16" cy="16" rx="15.2" ry="7.2" fill="none" stroke="#F3E8FF" stroke-width="1.2" opacity="0.4" transform="rotate(45 16 16)"/>
  <ellipse cx="16" cy="16" rx="12" ry="4.8" fill="none" stroke="#E0E7FF" stroke-width="1.2" opacity="0.6" transform="rotate(-45 16 16)"/>
</svg>